<svg xmlns="http://www.w3.org/2000/svg" width="178.439" height="129.802" viewBox="0 0 178.439 129.802">
  <g id="code" transform="translate(0 -65.225)">
    <g id="Group_62" data-name="Group 62" transform="translate(0 65.225)">
      <path id="Path_46" data-name="Path 46" d="M238.18,66.976,231.9,65.369a3.009,3.009,0,0,0-2.38.237,3.123,3.123,0,0,0-1.572,1.844l-37.8,122.044a2.665,2.665,0,0,0,.254,2.316,3.258,3.258,0,0,0,1.976,1.465l6.282,1.608a3,3,0,0,0,2.382-.236,3.127,3.127,0,0,0,1.571-1.842l37.8-122.046a2.668,2.668,0,0,0-.254-2.317A3.258,3.258,0,0,0,238.18,66.976Z" transform="translate(-126.058 -65.225)" fill="#fff"/>
      <path id="Path_47" data-name="Path 47" d="M58.977,126.4a2.789,2.789,0,0,0-1.014-2.116l-5.067-4.6a3.411,3.411,0,0,0-4.662,0L1.014,162.547a2.714,2.714,0,0,0,0,4.231l47.22,42.862a3.414,3.414,0,0,0,4.662,0l5.067-4.6a2.714,2.714,0,0,0,0-4.231l-39.824-36.15,39.824-36.147A2.785,2.785,0,0,0,58.977,126.4Z" transform="translate(0 -99.762)" fill="#fff"/>
      <path id="Path_48" data-name="Path 48" d="M414.272,162.544,367.05,119.682a3.411,3.411,0,0,0-4.661,0l-5.065,4.6a2.717,2.717,0,0,0,0,4.231l39.825,36.148-39.825,36.15a2.717,2.717,0,0,0,0,4.231l5.065,4.6a3.413,3.413,0,0,0,4.661,0l47.221-42.862a2.717,2.717,0,0,0,0-4.232Z" transform="translate(-236.846 -99.761)" fill="#fff"/>
    </g>
  </g>
</svg>
