<svg xmlns="http://www.w3.org/2000/svg" width="164.477" height="135.295" viewBox="0 0 164.477 135.295">
  <g id="computer" transform="translate(-8 -56)">
    <path id="Path_21" data-name="Path 21" d="M161.865,56H18.611A10.625,10.625,0,0,0,8,66.611v90.2A10.625,10.625,0,0,0,18.611,167.42H73.293l-3.538,10.611h-8.7a2.653,2.653,0,0,0-2.653,2.653v5.306H34.529a2.653,2.653,0,1,0,0,5.306H151.254a2.653,2.653,0,1,0,0-5.306H122.073v-5.306a2.653,2.653,0,0,0-2.653-2.653h-8.7l-3.538-10.611h54.682a10.625,10.625,0,0,0,10.611-10.611v-90.2A10.625,10.625,0,0,0,161.865,56Zm-45.1,127.337v2.653H63.71v-2.653Zm-41.418-5.306,3.538-10.611h22.7l3.538,10.611Zm91.822-21.223a5.313,5.313,0,0,1-5.306,5.306H18.611a5.313,5.313,0,0,1-5.306-5.306V151.5H167.171ZM52.986,122.321,51.991,146.2H48.9l-.995-23.876Zm-4.715-5.306L50.041,106.4h.809l1.771,10.611ZM50.446,101.1c-2.875,0-5.306-3.644-5.306-7.959,0-2.722,2.779-6.679,5.3-9.467,2.272,2.52,5.312,6.549,5.312,9.467C55.751,97.454,53.321,101.1,50.446,101.1Zm28.87-5.306.312.627v2.026H69.016V96.42l.312-.627ZM71.98,90.487l2.341-4.679,2.341,4.679Zm7.647,13.264v42.114a2.737,2.737,0,0,0,.023.332H68.992a2.739,2.739,0,0,0,.023-.332V103.751ZM103.5,93.14h7.959v5.306h-2.653a2.653,2.653,0,0,0,0,5.306h2.653v5.306H103.5a2.653,2.653,0,1,0,0,5.306h7.959v5.306h-2.653a2.653,2.653,0,0,0,0,5.306h2.653v5.306H103.5a2.653,2.653,0,1,0,0,5.306h7.959V146.2H92.891V82.529h18.57v5.306H103.5a2.653,2.653,0,1,0,0,5.306Zm31.834,31.834v20.891a2.736,2.736,0,0,0,.023.332H124.7a2.739,2.739,0,0,0,.023-.332V124.974Zm-10.611-5.306v-2.026l5.306-10.611,5.306,10.611v2.026ZM167.171,146.2H140.619a2.736,2.736,0,0,0,.023-.332v-28.85a2.679,2.679,0,0,0-.279-1.187l-7.959-15.917a2.656,2.656,0,0,0-4.749,0L119.7,115.828a2.68,2.68,0,0,0-.279,1.187v28.85a2.736,2.736,0,0,0,.023.332h-2.676V79.876a2.653,2.653,0,0,0-2.653-2.653H90.238a2.653,2.653,0,0,0-2.653,2.653V146.2H84.909a2.739,2.739,0,0,0,.023-.332V95.793a2.68,2.68,0,0,0-.279-1.187L76.7,78.689a2.656,2.656,0,0,0-4.749,0L63.988,94.606a2.68,2.68,0,0,0-.279,1.187v50.073a2.739,2.739,0,0,0,.023.332H57.3l1.1-26.419c0-.06,0-.119,0-.182v-.08a2.656,2.656,0,0,0-.033-.279v-.007L55.914,104.5A14.2,14.2,0,0,0,61.057,93.14c0-6.818-7.9-14.369-8.8-15.207a2.659,2.659,0,0,0-3.615,0c-.9.839-8.8,8.39-8.8,15.207A14.2,14.2,0,0,0,44.977,104.5l-2.454,14.727v.007a2.658,2.658,0,0,0-.033.279v.08c0,.063,0,.123,0,.182l1.1,26.419H13.306V66.611a5.313,5.313,0,0,1,5.306-5.306H161.865a5.313,5.313,0,0,1,5.306,5.306Z" fill="#fff"/>
    <path id="Path_22" data-name="Path 22" d="M58.57,352H42.653a2.653,2.653,0,1,0,0,5.306H58.57a2.653,2.653,0,1,0,0-5.306Z" transform="translate(-21.389 -197.844)" fill="#fff"/>
    <path id="Path_23" data-name="Path 23" d="M117.306,352h-2.653a2.653,2.653,0,1,0,0,5.306h2.653a2.653,2.653,0,1,0,0-5.306Z" transform="translate(-69.513 -197.844)" fill="#fff"/>
    <path id="Path_24" data-name="Path 24" d="M202.653,208A2.653,2.653,0,0,0,200,210.653v29.181a2.653,2.653,0,0,0,5.306,0V210.653A2.653,2.653,0,0,0,202.653,208Z" transform="translate(-128.332 -101.596)" fill="#fff"/>
    <path id="Path_25" data-name="Path 25" d="M370.653,272A2.653,2.653,0,0,0,368,274.653v7.959a2.653,2.653,0,0,0,5.306,0v-7.959A2.653,2.653,0,0,0,370.653,272Z" transform="translate(-240.622 -144.373)" fill="#fff"/>
    <path id="Path_26" data-name="Path 26" d="M42.653,93.306H63.876a2.653,2.653,0,1,0,0-5.306H42.653a2.653,2.653,0,1,0,0,5.306Z" transform="translate(-21.389 -21.389)" fill="#fff"/>
    <path id="Path_27" data-name="Path 27" d="M42.653,117.306h5.306a2.653,2.653,0,0,0,0-5.306H42.653a2.653,2.653,0,0,0,0,5.306Z" transform="translate(-21.389 -37.43)" fill="#fff"/>
    <path id="Path_28" data-name="Path 28" d="M426.653,301.306h10.611a2.653,2.653,0,0,0,0-5.306H426.653a2.653,2.653,0,1,0,0,5.306Z" transform="translate(-278.052 -160.414)" fill="#fff"/>
    <path id="Path_29" data-name="Path 29" d="M450.653,277.306h2.653a2.653,2.653,0,0,0,0-5.306h-2.653a2.653,2.653,0,1,0,0,5.306Z" transform="translate(-294.093 -144.373)" fill="#fff"/>
  </g>
</svg>
