<svg xmlns="http://www.w3.org/2000/svg" width="126" height="118.744" viewBox="0 0 126 118.744">
  <g id="Group_63" data-name="Group 63" transform="translate(-694 -1300)">
    <path id="Path_3" data-name="Path 3" d="M46.412,39.413c-3.048-6.108-6.728-12.5-10.533-20.127,6.966,0,10.418.028,15.615-.007,13.84-.092,23.24,3.373,29.159,17.179.571,1.333,1.167,2.937,1.167,2.937l25.13-.02C102.308,18.025,84.694.231,65.442.068L0-.01,14.026,26.378c9.141,14.989,12.382,13.135,32.386,13.035Z" transform="translate(698.194 1300.01)" fill="#8e8e8e" fill-rule="evenodd"/>
    <path id="Path_4" data-name="Path 4" d="M80.643,3681.2c-5.92,13.8-15.32,17.271-29.159,17.179-5.2-.035-8.649-.006-15.615-.006,3.806-7.631,7.486-14.021,10.533-20.127-20-.1-23.244-1.956-32.385,13.034l-14.027,26.3,65.442.007c19.251-.162,36.866-18.04,41.507-39.391l-25.129.066S81.214,3679.865,80.643,3681.2Z" transform="translate(698.204 -2331.616)" fill="#8e8e8e" fill-rule="evenodd"/>
    <text id="Jaya_Lestari" data-name="Jaya Lestari" transform="translate(694 1413.744)" fill="#8e8e8e" font-size="22" font-family="Ubuntu-Bold, Ubuntu" font-weight="700"><tspan x="0" y="0">Jaya Lestari</tspan></text>
  </g>
</svg>
