<svg id="instagram" xmlns="http://www.w3.org/2000/svg" width="31.925" height="31.931" viewBox="0 0 31.925 31.931">
  <path id="Path_17" data-name="Path 17" d="M32.293,9.388a11.668,11.668,0,0,0-.742-3.874A8.18,8.18,0,0,0,26.878.842,11.7,11.7,0,0,0,23,.1C21.3.019,20.753,0,16.417,0S11.539.019,9.836.094A11.671,11.671,0,0,0,5.963.836,7.791,7.791,0,0,0,3.131,2.682a7.862,7.862,0,0,0-1.84,2.826A11.7,11.7,0,0,0,.548,9.382c-.081,1.709-.1,2.252-.1,6.587s.019,4.878.094,6.581a11.667,11.667,0,0,0,.742,3.874A8.178,8.178,0,0,0,5.957,31.1a11.7,11.7,0,0,0,3.874.742c1.7.075,2.246.094,6.581.094s4.878-.019,6.581-.094a11.665,11.665,0,0,0,3.874-.742,8.167,8.167,0,0,0,4.672-4.672,11.707,11.707,0,0,0,.742-3.874c.075-1.7.094-2.246.094-6.581s-.006-4.878-.081-6.581ZM29.417,22.425a8.752,8.752,0,0,1-.549,2.963,5.3,5.3,0,0,1-3.032,3.032,8.783,8.783,0,0,1-2.963.549c-1.684.075-2.189.094-6.45.094s-4.772-.019-6.45-.094a8.748,8.748,0,0,1-2.963-.549,4.913,4.913,0,0,1-1.834-1.192,4.964,4.964,0,0,1-1.192-1.834,8.785,8.785,0,0,1-.549-2.963c-.075-1.684-.094-2.19-.094-6.45s.019-4.772.094-6.45a8.748,8.748,0,0,1,.549-2.963,4.853,4.853,0,0,1,1.2-1.834A4.957,4.957,0,0,1,7.017,3.543,8.789,8.789,0,0,1,9.98,2.994c1.684-.075,2.19-.094,6.45-.094s4.772.019,6.45.094a8.752,8.752,0,0,1,2.963.549,4.91,4.91,0,0,1,1.834,1.191,4.963,4.963,0,0,1,1.192,1.834,8.788,8.788,0,0,1,.549,2.963c.075,1.684.094,2.189.094,6.45s-.019,4.759-.094,6.444Zm0,0" transform="translate(-0.449 0)" fill="#fff"/>
  <path id="Path_18" data-name="Path 18" d="M133.152,124.5a8.2,8.2,0,1,0,8.2,8.2A8.2,8.2,0,0,0,133.152,124.5Zm0,13.524a5.321,5.321,0,1,1,5.321-5.321A5.322,5.322,0,0,1,133.152,138.024Zm0,0" transform="translate(-117.183 -116.734)" fill="#fff"/>
  <path id="Path_19" data-name="Path 19" d="M366.28,90.517a1.915,1.915,0,1,1-1.915-1.915A1.915,1.915,0,0,1,366.28,90.517Zm0,0" transform="translate(-339.869 -83.075)" fill="#fff"/>
</svg>
