<svg xmlns="http://www.w3.org/2000/svg" width="31.297" height="31.297" viewBox="0 0 31.297 31.297">
  <path id="linkedin" d="M28.466,0H2.831A2.831,2.831,0,0,0,0,2.831V28.466A2.831,2.831,0,0,0,2.831,31.3H28.466A2.831,2.831,0,0,0,31.3,28.466V2.831A2.831,2.831,0,0,0,28.466,0ZM9.685,27.024a.824.824,0,0,1-.824.824H5.354a.824.824,0,0,1-.824-.824v-14.7a.824.824,0,0,1,.824-.824H8.861a.824.824,0,0,1,.824.824ZM7.107,10.113a3.332,3.332,0,1,1,3.332-3.332A3.332,3.332,0,0,1,7.107,10.113ZM28.012,27.09a.758.758,0,0,1-.758.758H23.491a.758.758,0,0,1-.758-.758v-6.9c0-1.029.3-4.508-2.688-4.508-2.319,0-2.79,2.381-2.884,3.45V27.09a.758.758,0,0,1-.758.758h-3.64a.758.758,0,0,1-.758-.758V12.256a.758.758,0,0,1,.758-.758H16.4a.758.758,0,0,1,.758.758v1.283c.86-1.291,2.138-2.287,4.859-2.287,6.026,0,5.992,5.63,5.992,8.723V27.09Z" fill="#fff"/>
</svg>
