<svg xmlns="http://www.w3.org/2000/svg" width="38.044" height="31.65" viewBox="0 0 38.044 31.65">
  <g id="right-arrow" transform="translate(0 -41.346)">
    <g id="Group_23" data-name="Group 23" transform="translate(0 41.346)">
      <path id="Path_2" data-name="Path 2" d="M37.436,55.693,23.7,41.953a2.088,2.088,0,0,0-2.945,0L19.5,43.2a2.067,2.067,0,0,0-.608,1.472,2.107,2.107,0,0,0,.608,1.49L27.52,54.2H2.055A2.032,2.032,0,0,0,0,56.243v1.764a2.11,2.11,0,0,0,2.055,2.138H27.61L19.5,68.222a2.062,2.062,0,0,0,0,2.924l1.247,1.244a2.089,2.089,0,0,0,2.945,0L37.436,58.648a2.1,2.1,0,0,0,0-2.955Z" transform="translate(0 -41.346)" fill="#fff"/>
    </g>
  </g>
</svg>
