<svg xmlns="http://www.w3.org/2000/svg" width="278.477" height="96.531" viewBox="0 0 278.477 96.531">
  <g id="UNIVERSAL" transform="translate(0)">
    <g id="_1936542686448" transform="translate(0)">
      <g id="Group_27" data-name="Group 27" transform="translate(0)">
        <g id="Group_26" data-name="Group 26">
          <path id="Path_5" data-name="Path 5" d="M16.049,1836.055q2.216,0,3.794-2.685,14.415-25.561,15-26.613l-9.571-16.69q-1.518-2.626-3.851-2.626H7.47a2,2,0,0,0-1.868.875,1.9,1.9,0,0,0,.058,2.158l9.4,16.283c.038.041.038.059,0,.059L.291,1832.962a2.038,2.038,0,0,0,0,2.1,1.949,1.949,0,0,0,1.809.993H16.049Z" transform="translate(0 -1768.414)" fill="#8e8e8e" fill-rule="evenodd"/>
          <path id="Path_6" data-name="Path 6" d="M2987.44,0h-14.065q-2.275,0-3.734,2.626Q2939.7,55.736,2938.65,57.6l19.784,36.3a4.265,4.265,0,0,0,3.851,2.626h13.948a1.928,1.928,0,0,0,1.81-3.036L2958.435,57.6v-.057L2989.25,3.035a1.971,1.971,0,0,0,0-2.159A1.938,1.938,0,0,0,2987.44,0Z" transform="translate(-2907.368)" fill="#8e8e8e" fill-rule="evenodd"/>
        </g>
      </g>
    </g>
    <g id="_1936476090560" transform="translate(92.477 6.392)">
      <text id="COMPUTER" transform="translate(0 71.053)" fill="#8e8e8e" font-size="37" font-family="NeuzeitGro-Bla, Neuzeit Grotesk"><tspan x="0" y="0">COMPUTER</tspan></text>
      <text id="UNIVERSAL-2" data-name="UNIVERSAL" transform="translate(5.785 32)" fill="#8e8e8e" font-size="37" font-family="NeuzeitGro-Lig, Neuzeit Grotesk"><tspan x="0" y="0">UNIVERSAL</tspan></text>
    </g>
  </g>
</svg>
