<svg xmlns="http://www.w3.org/2000/svg" width="140.938" height="135.295" viewBox="0 0 140.938 135.295">
  <g id="web-design" transform="translate(0 -10.249)">
    <g id="Group_31" data-name="Group 31" transform="translate(0 10.249)">
      <g id="Group_30" data-name="Group 30" transform="translate(0 0)">
        <path id="Path_30" data-name="Path 30" d="M138.185,10.249H2.753A2.753,2.753,0,0,0,0,13V41.316a2.753,2.753,0,0,0,2.753,2.753H138.185a2.753,2.753,0,0,0,2.753-2.753V13A2.753,2.753,0,0,0,138.185,10.249Zm-2.753,28.314H5.505V15.754H135.433Z" transform="translate(0 -10.249)" fill="#fff"/>
      </g>
    </g>
    <g id="Group_33" data-name="Group 33" transform="translate(110.318 17.312)">
      <g id="Group_32" data-name="Group 32">
        <path id="Path_31" data-name="Path 31" d="M419.661,50.905l-2.248-2.248a8.788,8.788,0,1,0-3.893,3.893l2.248,2.248a2.753,2.753,0,0,0,3.893-3.893Zm-7.776-3.883a3.288,3.288,0,1,1,.963-2.325A3.266,3.266,0,0,1,411.885,47.022Z" transform="translate(-400.765 -35.906)" fill="#fff"/>
      </g>
    </g>
    <g id="Group_35" data-name="Group 35" transform="translate(93.19 29.39)">
      <g id="Group_34" data-name="Group 34">
        <path id="Path_32" data-name="Path 32" d="M343.992,82a2.765,2.765,0,0,0-.157-.515,2.812,2.812,0,0,0-.253-.476,2.763,2.763,0,0,0-.341-.418,2.64,2.64,0,0,0-.418-.341,2.725,2.725,0,0,0-.476-.253,2.78,2.78,0,0,0-.515-.157,2.725,2.725,0,0,0-1.076,0,2.813,2.813,0,0,0-1.409.751,2.9,2.9,0,0,0-.341.418,2.83,2.83,0,0,0-.253.476,2.778,2.778,0,0,0-.157.515,2.791,2.791,0,0,0,0,1.076,2.777,2.777,0,0,0,.157.514,2.767,2.767,0,0,0,.595.895,2.762,2.762,0,0,0,.421.341,2.8,2.8,0,0,0,.473.253,2.915,2.915,0,0,0,.515.157,2.742,2.742,0,0,0,1.591-.157,2.821,2.821,0,0,0,.476-.253,2.623,2.623,0,0,0,.418-.341,2.778,2.778,0,0,0,.806-1.946A2.74,2.74,0,0,0,343.992,82Z" transform="translate(-338.541 -79.786)" fill="#fff"/>
      </g>
    </g>
    <g id="Group_37" data-name="Group 37" transform="translate(25.543 29.39)">
      <g id="Group_36" data-name="Group 36">
        <path id="Path_33" data-name="Path 33" d="M152.757,79.786H95.547a2.753,2.753,0,0,0,0,5.505h57.21a2.753,2.753,0,0,0,0-5.505Z" transform="translate(-92.794 -79.786)" fill="#fff"/>
      </g>
    </g>
    <g id="Group_39" data-name="Group 39" transform="translate(0.325 47.992)">
      <g id="Group_38" data-name="Group 38" transform="translate(0 0)">
        <path id="Path_34" data-name="Path 34" d="M87.516,147.364H3.934a2.753,2.753,0,0,0-2.753,2.753V204.4a2.753,2.753,0,0,0,2.753,2.753H87.516a2.753,2.753,0,0,0,2.753-2.753V150.117A2.753,2.753,0,0,0,87.516,147.364ZM34.385,201.647H11.02l15.736-18.219,11.4,13.2Zm6.882,0L46.4,194.8H59.747a2.753,2.753,0,0,0,0-5.505H50.529l1.931-2.575H69.744l11.194,14.924Zm15.322-20.429L61.1,175.2l4.513,6.017Zm28.175,16.355L63.3,168.961a2.753,2.753,0,0,0-4.4,0L41.533,192.116l-12.694-14.7a2.752,2.752,0,0,0-4.166,0L6.686,198.241V152.87H84.764Z" transform="translate(-1.181 -147.364)" fill="#fff"/>
      </g>
    </g>
    <g id="Group_41" data-name="Group 41" transform="translate(28.159 56.658)">
      <g id="Group_40" data-name="Group 40" transform="translate(0 0)">
        <path id="Path_35" data-name="Path 35" d="M112.027,178.846a9.732,9.732,0,1,0,9.731,9.732A9.742,9.742,0,0,0,112.027,178.846Zm0,13.958a4.226,4.226,0,1,1,4.226-4.226A4.231,4.231,0,0,1,112.027,192.8Z" transform="translate(-102.295 -178.846)" fill="#fff"/>
      </g>
    </g>
    <g id="Group_43" data-name="Group 43" transform="translate(93.127 47.992)">
      <g id="Group_42" data-name="Group 42" transform="translate(0 0)">
        <path id="Path_36" data-name="Path 36" d="M383.371,147.364H341.065a2.753,2.753,0,0,0-2.753,2.753V204.4a2.753,2.753,0,0,0,2.753,2.753h42.306a2.753,2.753,0,0,0,2.753-2.753V150.117A2.753,2.753,0,0,0,383.371,147.364Zm-2.753,54.283h-36.8V152.87h36.8Z" transform="translate(-338.312 -147.364)" fill="#fff"/>
      </g>
    </g>
    <g id="Group_45" data-name="Group 45" transform="translate(102.288 58.032)">
      <g id="Group_44" data-name="Group 44">
        <path id="Path_37" data-name="Path 37" d="M398.33,183.835H374.348a2.753,2.753,0,1,0,0,5.505H398.33a2.753,2.753,0,0,0,0-5.505Z" transform="translate(-371.595 -183.835)" fill="#fff"/>
      </g>
    </g>
    <g id="Group_47" data-name="Group 47" transform="translate(102.288 69.079)">
      <g id="Group_46" data-name="Group 46">
        <path id="Path_38" data-name="Path 38" d="M398.33,223.969H374.348a2.753,2.753,0,1,0,0,5.505H398.33a2.753,2.753,0,0,0,0-5.505Z" transform="translate(-371.595 -223.969)" fill="#fff"/>
      </g>
    </g>
    <g id="Group_49" data-name="Group 49" transform="translate(102.288 80.127)">
      <g id="Group_48" data-name="Group 48">
        <path id="Path_39" data-name="Path 39" d="M398.33,264.1H374.348a2.753,2.753,0,1,0,0,5.505H398.33a2.753,2.753,0,0,0,0-5.505Z" transform="translate(-371.595 -264.103)" fill="#fff"/>
      </g>
    </g>
    <g id="Group_51" data-name="Group 51" transform="translate(102.287 91.175)">
      <g id="Group_50" data-name="Group 50">
        <path id="Path_40" data-name="Path 40" d="M377.044,306.452a2.751,2.751,0,0,0-.157-.515,2.908,2.908,0,0,0-.253-.476,2.748,2.748,0,0,0-3.342-1.013,2.908,2.908,0,0,0-.476.253,2.675,2.675,0,0,0-.76.76,2.912,2.912,0,0,0-.253.476,2.737,2.737,0,0,0,0,2.106,2.878,2.878,0,0,0,.253.476,2.675,2.675,0,0,0,.76.76,2.958,2.958,0,0,0,.476.253,2.794,2.794,0,0,0,.515.157,2.728,2.728,0,0,0,2.483-.752,2.71,2.71,0,0,0,.6-.895,2.707,2.707,0,0,0,.209-1.054A2.728,2.728,0,0,0,377.044,306.452Z" transform="translate(-371.591 -304.238)" fill="#fff"/>
      </g>
    </g>
    <g id="Group_53" data-name="Group 53" transform="translate(112.724 91.174)">
      <g id="Group_52" data-name="Group 52">
        <path id="Path_41" data-name="Path 41" d="M425.8,304.236H412.258a2.753,2.753,0,0,0,0,5.505H425.8a2.753,2.753,0,0,0,0-5.505Z" transform="translate(-409.505 -304.236)" fill="#fff"/>
      </g>
    </g>
    <g id="Group_55" data-name="Group 55" transform="translate(0.325 111.686)">
      <g id="Group_54" data-name="Group 54">
        <path id="Path_42" data-name="Path 42" d="M46.24,378.751H3.934A2.753,2.753,0,0,0,1.181,381.5v28.353a2.753,2.753,0,0,0,2.753,2.753H46.24a2.753,2.753,0,0,0,2.753-2.753V381.5A2.753,2.753,0,0,0,46.24,378.751ZM43.487,407.1H6.686V384.256h36.8Z" transform="translate(-1.181 -378.751)" fill="#fff"/>
      </g>
    </g>
    <g id="Group_57" data-name="Group 57" transform="translate(52.226 111.686)">
      <g id="Group_56" data-name="Group 56">
        <path id="Path_43" data-name="Path 43" d="M275.687,378.751H192.481a2.753,2.753,0,0,0-2.753,2.753v28.353a2.753,2.753,0,0,0,2.753,2.753h83.207a2.753,2.753,0,0,0,2.753-2.753V381.5A2.753,2.753,0,0,0,275.687,378.751ZM272.935,407.1h-77.7V384.256h77.7Z" transform="translate(-189.728 -378.751)" fill="#fff"/>
      </g>
    </g>
    <g id="Group_59" data-name="Group 59" transform="translate(64.82 125.863)">
      <g id="Group_58" data-name="Group 58">
        <path id="Path_44" data-name="Path 44" d="M240.931,432.47a2.807,2.807,0,0,0-.157-.515,2.732,2.732,0,0,0-.253-.476,2.676,2.676,0,0,0-.76-.76,2.865,2.865,0,0,0-.991-.413,2.831,2.831,0,0,0-1.076,0,2.9,2.9,0,0,0-.515.16,2.83,2.83,0,0,0-.474.253,2.646,2.646,0,0,0-.418.341,2.816,2.816,0,0,0-.344.418,2.732,2.732,0,0,0-.253.476,2.8,2.8,0,0,0-.157.515,2.785,2.785,0,0,0,0,1.073,2.89,2.89,0,0,0,.157.517,2.775,2.775,0,0,0,.253.473,2.829,2.829,0,0,0,.344.419,2.775,2.775,0,0,0,1.946.806,2.723,2.723,0,0,0,.537-.052,2.788,2.788,0,0,0,.515-.16,2.506,2.506,0,0,0,.476-.253,2.671,2.671,0,0,0,.76-.76,2.794,2.794,0,0,0,.253-.474,2.887,2.887,0,0,0,.157-.517,2.645,2.645,0,0,0,0-1.073Z" transform="translate(-235.481 -430.254)" fill="#fff"/>
      </g>
    </g>
    <g id="Group_61" data-name="Group 61" transform="translate(75.255 125.863)">
      <g id="Group_60" data-name="Group 60">
        <path id="Path_45" data-name="Path 45" d="M322.368,430.252H276.142a2.753,2.753,0,0,0,0,5.506h46.226a2.753,2.753,0,0,0,0-5.506Z" transform="translate(-273.389 -430.252)" fill="#fff"/>
      </g>
    </g>
  </g>
</svg>
