<svg xmlns="http://www.w3.org/2000/svg" width="103.317" height="113.559" viewBox="0 0 103.317 113.559">
  <g id="Yogya" transform="translate(0.019 -0.003)">
    <g id="_1935959898272" transform="translate(12.583 0.003)">
      <path id="Path_12" data-name="Path 12" d="M2425.81,5.044a13.649,13.649,0,0,1,17.375-3.23l14.439,8.337-5.13,2.988c-3.513,1.662-7.951,2.132-10.618,1.156L2425.81,5.044Zm37.742,6.568,16.969-9.8a13.649,13.649,0,0,1,17.375,3.23L2461.853,25.8l-14.343-8.259c2.439.9,5.682-.283,9.239-1.966l6.8-3.962Z" transform="translate(-2422.799 -0.003)" fill="#8e8e8e" fill-rule="evenodd"/>
      <path id="Path_13" data-name="Path 13" d="M1983.367,1403.2v-16.925l5.118,2.955c3.531,2.463,6.357,6.639,6.357,9.517v17.884A13.649,13.649,0,0,1,1983.367,1403.2Zm-1.7-22.808-16.969-9.8a13.649,13.649,0,0,1-5.895-16.651l.063.022,31.971,18.409c2.691,1.744,3.967,4.62,4,8.487V1392.1c0-2.878-2.826-5.312-6.357-7.775Z" transform="translate(-1957.911 -1345.226)" fill="#8e8e8e" fill-rule="evenodd"/>
      <path id="Path_14" data-name="Path 14" d="M8368.308,1403.2v-27.807c.349-4.067.992-7.572,3.183-9.151l-10.653,6.134c-2.691,1.744-3.967,4.62-4,8.487v35.769A13.65,13.65,0,0,0,8368.308,1403.2Zm4.244-24.278,14.423-8.327a13.649,13.649,0,0,0,5.9-16.651l-.063.022-15.638,9.005c-2.306,1.692-4.271,5.939-4.617,9.97Z" transform="translate(-8315.648 -1345.227)" fill="#8e8e8e" fill-rule="evenodd"/>
    </g>
    <path id="Path_15" data-name="Path 15" d="M80.862,12382.178H83.2a4.064,4.064,0,0,0,3.356-2.334l.885-2.033h9.281l.885,2.033a4.064,4.064,0,0,0,3.356,2.334H103.3l-8.938-20.512H89.8l-8.938,20.512Zm-16.151-20.512H67.6A4.514,4.514,0,0,1,71,12363.8l3.193,5.406,3.193-5.406a4.514,4.514,0,0,1,3.393-2.135h2.893l-7.385,12.508v8H72.1v-8Zm-10.264-.525a11.013,11.013,0,0,1,7.625,3.023l-2.3,3.58a6.508,6.508,0,0,0-5.615-2.52c-2.711,0-5.9,2.883-5.9,6.436a6.317,6.317,0,0,0,6.193,6.436,6.02,6.02,0,0,0,3.8-1.354v-2.775a3.954,3.954,0,0,1,3.943-3.943h.791v8.154a10.983,10.983,0,0,1-8.532,4,10.524,10.524,0,1,1,0-21.037Zm-24.486,0a10.524,10.524,0,1,1,0,21.037,10.524,10.524,0,1,1,0-21.037Zm0,4.084a6.44,6.44,0,1,1-6.193,6.436A6.319,6.319,0,0,1,29.961,12365.225Zm-29.98-3.559H2.874a4.514,4.514,0,0,1,3.393,2.135l3.193,5.406,3.193-5.406a4.514,4.514,0,0,1,3.393-2.135h2.893l-7.385,12.508v8H7.366v-8l-7.385-12.508Zm89.292,11.938,2.807-6.441,2.807,6.441Z" transform="translate(0 -12281.581)" fill="#8e8e8e" fill-rule="evenodd"/>
    <path id="Path_16" data-name="Path 16" d="M3386.048,16428.529a2.8,2.8,0,0,1-1.369.324,2.433,2.433,0,1,1,.022-4.865,2.575,2.575,0,0,1,1.966.857l1.13-1.043a4.057,4.057,0,0,0-3.183-1.314,3.939,3.939,0,1,0-.032,7.865,5.229,5.229,0,0,0,3.074-.967v-3.086h-1.608Zm15.453,1.7-1.706-2.447a2.467,2.467,0,0,0,1.564-2.4c0-1.707-1.271-2.76-3.3-2.76h-3.292v7.605h1.76v-2.121h1.619l1.467,2.121Zm-1.924-4.846c0,.826-.543,1.326-1.619,1.326h-1.434v-2.654h1.434C3399.033,16424.051,3399.577,16424.543,3399.577,16425.379Zm12.335,4.975a3.939,3.939,0,1,0-4.162-3.934A3.935,3.935,0,0,0,3411.912,16430.354Zm0-1.5a2.433,2.433,0,1,1,2.379-2.434A2.319,2.319,0,0,1,3411.912,16428.854Zm14.344,1.5a3.15,3.15,0,0,0,3.444-3.477v-4.258h-1.739v4.193c0,1.445-.619,2.041-1.7,2.041s-1.7-.6-1.7-2.041v-4.193h-1.76v4.258A3.15,3.15,0,0,0,3426.256,16430.354Zm13.953-7.734h-3.292v7.605h1.76v-2.1h1.532c2.032,0,3.3-1.053,3.3-2.748S3442.24,16422.619,3440.208,16422.619Zm-.1,4.074h-1.434v-2.643h1.434c1.075,0,1.619.492,1.619,1.328S3441.187,16426.693,3440.111,16426.693Z" transform="translate(-3358.693 -16316.791)" fill="#8e8e8e" fill-rule="evenodd"/>
  </g>
</svg>
